<svg _ngcontent-serverApp-c25="" width="26" height="19" viewBox="0 0 26 19" fill="none" xmlns="http://www.w3.org/2000/svg"><path _ngcontent-serverApp-c25="" fill-rule="evenodd" clip-rule="evenodd" d="M2.52037 13.6939C1.97537 12.3839 1.67537 10.9389 1.67537 9.42387C1.67537 7.91012 1.97537 6.46637 2.52037 5.15512C3.08537 3.78762 3.91537 2.55762 4.94412 1.52762C5.17662 1.29887 5.17662 0.926372 4.94412 0.696372C4.72037 0.467622 4.34912 0.467622 4.11287 0.696372C2.97787 1.83012 2.06287 3.19387 1.43787 4.70387C0.832866 6.16137 0.500366 7.75512 0.500366 9.42387C0.500366 11.0926 0.832866 12.6889 1.43787 14.1439C2.06287 15.6526 2.97787 17.0139 4.11287 18.1514C4.34912 18.3801 4.72037 18.3801 4.94412 18.1514C5.17662 17.9214 5.17662 17.5489 4.94412 17.3201C3.91537 16.2901 3.08537 15.0551 2.52037 13.6939ZM18.1516 8.83512H18.1066H17.3829H16.6591L16.6504 8.83387V8.82887V8.54387V8.53012V8.18137V8.16887V7.88012L16.6591 7.87762H17.3829H18.1066V7.88012H18.1116C18.1116 8.20387 18.3716 8.46762 18.6966 8.46762C19.0216 8.46762 19.2854 8.20387 19.2854 7.88012C19.2854 7.55762 19.1529 7.25887 18.9354 7.04887C18.7241 6.83387 18.4291 6.70137 18.1066 6.70137H17.3829H16.6591C16.3391 6.70137 16.0379 6.83387 15.8266 7.04512L15.8241 7.04887C15.6141 7.26387 15.4754 7.55762 15.4754 7.88012V8.16887V8.18137V8.53012V8.54387V8.82887C15.4754 9.15137 15.6104 9.44637 15.8241 9.66137L15.8266 9.66387C16.0341 9.86637 16.3091 9.99637 16.6104 10.0114H16.6591H17.3829H18.1066V10.0139H18.1116V10.6651V10.6951V10.9664L18.1066 10.9714H17.3829H16.6591V10.9664H16.6504C16.6504 10.6414 16.3916 10.3814 16.0679 10.3814C15.7404 10.3814 15.4754 10.6414 15.4754 10.9664C15.4754 11.2889 15.6141 11.5876 15.8241 11.7976C16.0379 12.0126 16.3316 12.1464 16.6591 12.1464H17.3829H18.1066C18.4291 12.1464 18.7241 12.0126 18.9354 11.7976C19.1529 11.5839 19.2854 11.2851 19.2854 10.9664V10.3189V10.2889V10.0139C19.2854 9.69262 19.1529 9.39887 18.9354 9.18262C18.7366 8.98012 18.4566 8.84637 18.1516 8.83512ZM13.6629 8.83512H12.2004V7.87762H13.6541L13.6629 7.88012V8.83512ZM13.6629 10.9664L13.6541 10.9714H12.2004V10.0114H13.6541V10.0139L13.6629 10.0114V10.9664ZM14.7166 7.37387C14.6591 7.24762 14.5766 7.13762 14.4879 7.04512C14.3841 6.94512 14.2529 6.85262 14.1054 6.79512V6.79137C13.9666 6.73387 13.8141 6.70137 13.6541 6.70137H11.6141C11.2904 6.70137 11.0266 6.96637 11.0266 7.28887V11.5576C11.0266 11.8839 11.2904 12.1464 11.6141 12.1464H13.6541C13.8141 12.1464 13.9666 12.1114 14.1054 12.0564V12.0551C14.2529 11.9901 14.3841 11.9026 14.4879 11.7976C14.5766 11.7114 14.6591 11.5964 14.7166 11.4701L14.7429 11.4189C14.8004 11.2776 14.8354 11.1226 14.8354 10.9664V10.0139C14.8354 9.85887 14.8004 9.70512 14.7429 9.56512V9.56637C14.7204 9.51637 14.6966 9.46887 14.6729 9.42387C14.6966 9.37887 14.7204 9.33262 14.7429 9.27887V9.28387C14.8004 9.14262 14.8354 8.98887 14.8354 8.82887V7.88012C14.8354 7.72387 14.8004 7.57012 14.7429 7.42887L14.7166 7.37387ZM18.8041 15.3776L18.7966 15.3839C17.2779 16.9089 15.1679 17.8489 12.8441 17.8489C10.5116 17.8489 8.41037 16.9089 6.88412 15.3839V15.3776C5.35787 13.8601 4.42037 11.7501 4.42037 9.42387C4.42037 7.09387 5.35787 4.98762 6.88412 3.46637V3.46262C8.41037 1.93762 10.5116 0.997622 12.8441 0.997622C15.1679 0.997622 17.2779 1.93762 18.7966 3.46262L18.8041 3.46637C20.3254 4.98762 21.2666 7.09387 21.2666 9.42387C21.2666 11.7501 20.3254 13.8601 18.8041 15.3776ZM19.5066 2.76387H19.5041V2.76012C17.7966 1.05637 15.4429 0.00012207 12.8441 0.00012207C10.2466 0.00012207 7.88787 1.05387 6.18662 2.76012H6.18162V2.76387C4.47287 4.47012 3.42037 6.82762 3.42037 9.42387C3.42037 12.0226 4.47287 14.3776 6.18162 16.0814V16.0864V16.0876C7.88787 17.7926 10.2466 18.8489 12.8441 18.8489C15.4429 18.8489 17.7966 17.7926 19.5004 16.0876H19.5041V16.0864C21.2154 14.3776 22.2716 12.0226 22.2716 9.42387C22.2716 6.82762 21.2154 4.47012 19.5066 2.76387ZM8.20662 9.87012L8.49162 9.05012L8.77912 9.87012H8.20662ZM8.68787 6.73387C8.38037 6.62887 8.04787 6.78637 7.94037 7.09387L6.43287 11.3639C6.32787 11.6714 6.48537 12.0064 6.79662 12.1114C7.09787 12.2201 7.43662 12.0564 7.54287 11.7564L7.79037 11.0489H9.19662L9.44912 11.7564C9.55662 12.0564 9.88912 12.2201 10.1954 12.1114C10.4991 12.0064 10.6629 11.6714 10.5516 11.3639L9.04787 7.09387C8.98787 6.92887 8.86412 6.79512 8.68787 6.73387ZM24.2516 4.70387C23.6279 3.19387 22.7091 1.83012 21.5729 0.696372C21.3404 0.467622 20.9679 0.467622 20.7441 0.696372C20.5116 0.926372 20.5116 1.29887 20.7441 1.52762C21.7679 2.55762 22.6016 3.78762 23.1679 5.15512C23.7129 6.46637 24.0116 7.91012 24.0116 9.42387C24.0116 10.9389 23.7129 12.3839 23.1679 13.6939C22.6016 15.0551 21.7679 16.2901 20.7441 17.3201C20.5116 17.5489 20.5116 17.9214 20.7441 18.1514C20.9679 18.3801 21.3404 18.3801 21.5729 18.1514C22.7091 17.0139 23.6279 15.6526 24.2516 14.1439C24.8541 12.6889 25.1891 11.0926 25.1891 9.42387C25.1891 7.75512 24.8541 6.16137 24.2516 4.70387Z" fill="#01602A"/></svg>