<svg _ngcontent-serverApp-c28="" width="17" height="20" viewBox="0 0 17 20" xmlns="http://www.w3.org/2000/svg"><g _ngcontent-serverApp-c28="" stroke="none" stroke-width="1" fill="none" fill-rule="evenodd"><g _ngcontent-serverApp-c28="" fill-rule="nonzero" fill="#01602A"><path _ngcontent-serverApp-c28="" d="M13.1184611,16.0808363 C12.558252,15.5843323 11.8187533,15.3660603 11.0892888,15.4821656 L7.37267354,16.0727667 L6.31752475,11.5026017 C6.04679173,10.3278552 5.45695348,9.26613282 4.61185943,8.43212148 C4.11247061,7.93899205 3.53967149,7.54235615 2.91788485,7.25297334 C3.56418892,6.78097174 3.88826391,5.92328941 3.66457786,5.09123436 L3.22591465,3.45964742 C2.94121901,2.40095726 1.87622538,1.77871331 0.851415723,2.07298682 C0.233841533,2.25027475 -0.128997503,2.9136495 0.0425298472,3.55183715 L1.08849643,7.44214568 C1.09351351,7.46073035 3.12363247,16.2330839 3.12363247,16.2330839 C3.0392414,16.4458783 2.99233643,16.678529 2.99233643,16.9223793 C2.99233643,17.3902728 3.16391111,17.8174755 3.44524626,18.140702 L3.44524626,18.3948718 C3.44524626,19.279942 4.14209978,20 4.99860059,20 L12.4465983,20 C13.3031465,20 14,19.279942 14,18.3948718 L14,18.0623041 C14,17.2995991 13.6786702,16.5774382 13.1184611,16.0808363 Z M1.07950355,2.92118118 C1.17553805,2.89364654 1.27218784,2.88044164 1.36732304,2.88044164 C1.83883393,2.88044164 2.27281138,3.20347248 2.40500671,3.69528142 L2.84366992,5.32686836 C3.00255991,5.91786073 2.66655752,6.53227957 2.09456303,6.69650932 L1.79538412,6.78239004 L0.863437784,3.31620315 C0.817574097,3.1457622 0.914555206,2.96852318 1.07950355,2.92118118 Z M4.02329911,9.06869519 C4.74940316,9.78523188 5.25612827,10.6973966 5.48875987,11.7066907 L6.52781614,16.2070164 L6.38946778,16.2290246 C6.12484046,15.5663345 5.49306699,15.0985878 4.75730742,15.0985878 C4.40649045,15.0985878 4.0795756,15.2053029 3.80448814,15.3883619 L2.06512319,7.85242663 C2.79482439,8.10160787 3.46261671,8.51501887 4.02329911,9.06869519 Z M3.84424613,16.9223304 C3.84424613,16.4021065 4.25384815,15.9788652 4.75730742,15.9788652 C5.2607667,15.9788652 5.67036871,16.4021065 5.67036871,16.9223304 C5.67036871,17.4425544 5.2607667,17.8657957 4.75730742,17.8657957 C4.25384815,17.8657957 3.84424613,17.4426033 3.84424613,16.9223304 Z M13.1481376,18.3948229 C13.1481376,18.794491 12.8334342,19.1196248 12.4466457,19.1196248 L4.99864792,19.1196248 C4.71740744,19.1196248 4.47488367,18.9472765 4.36318263,18.6997092 C4.49002957,18.7297381 4.62184625,18.7461219 4.75735475,18.7461219 C5.6726406,18.7461219 6.42719055,18.0224937 6.51390084,17.0998629 L11.2189282,16.3521724 C11.7021299,16.2753395 12.1925258,16.4198598 12.5638371,16.7489551 C12.9351484,17.0780504 13.1481376,17.5567522 13.1481376,18.0622062 L13.1481376,18.3948229 L13.1481376,18.3948229 Z"/><path _ngcontent-serverApp-c28="" d="M16.8517812,7.02758634 L15.9855952,3.67126012 C15.3193485,1.08994161 12.5708487,-0.494316679 9.85872882,0.139702283 C8.544928,0.44688368 7.43533763,1.22260877 6.73451991,2.3239758 C6.03375244,3.42539065 5.82547184,4.7205933 6.14821883,5.97107937 L7.01440481,9.32740559 C7.33715179,10.5778438 8.15218466,11.6338725 9.30936049,12.3008909 C10.110977,12.7629304 11.0102265,13 11.9238975,13 C12.3292532,13 12.7374731,12.9533226 13.1412712,12.8589156 C14.455072,12.551782 15.5646624,11.7760569 16.2654801,10.6746421 C16.9662476,9.57327505 17.1745282,8.2780724 16.8517812,7.02758634 Z M15.4918019,10.2287197 C14.9161535,11.1334294 14.0047437,11.7706527 12.925604,12.0229307 C10.6979313,12.5436996 8.44010934,11.2425188 7.89285145,9.12204409 L7.02666547,5.76571787 C6.76160392,4.73857558 6.93260003,3.67460788 7.50829865,2.76989817 C8.08394701,1.86518845 8.99535676,1.2279652 10.0744965,0.975687155 C10.4065394,0.89806682 10.7391854,0.860906623 11.0667563,0.860906623 C12.9372115,0.860906623 14.6415949,2.07222383 15.107249,3.87657379 L15.973435,7.23290001 C16.2384966,8.26009012 16.0675005,9.32401 15.4918019,10.2287197 Z"/></g></g></svg>