<svg _ngcontent-serverApp-c166="" width="23" height="23" viewBox="0 0 23 23" fill="none" xmlns="http://www.w3.org/2000/svg"><path _ngcontent-serverApp-c166="" fill-rule="evenodd" clip-rule="evenodd" d="M15.1719 12.0537C14.9306 13.4946 13.8844 14.6607 12.5081 15.0699L12.0176 21.8158H10.8142L10.3231 15.0672C8.85434 14.6254 7.76158 13.3213 7.62999 11.7418H1.40876V10.5383L7.87978 10.0307C8.43553 8.61703 9.80964 7.61412 11.4212 7.61412C13.15 7.61412 14.607 8.76733 15.0718 10.3452L21.5118 10.8502V12.0537H15.1719ZM12.9574 21.4671L13.3725 15.8968C14.6808 15.325 15.6891 14.198 16.1004 12.8116H21.4883C20.8726 17.2661 17.3911 20.7878 12.9574 21.4671ZM1.3526 12.8111H6.74102C7.15181 14.1975 8.16006 15.3245 9.46839 15.8963L9.88399 21.4671C5.44981 20.7878 1.96825 17.2656 1.3526 12.8111ZM11.4207 1.2458C16.4219 1.25489 20.564 4.85947 21.4241 9.61352L15.5029 8.74433C14.6306 7.41622 13.1291 6.5374 11.4207 6.5374C9.71176 6.5374 8.21088 7.41622 7.33848 8.74433L1.41732 9.61352C2.27688 4.85947 6.41902 1.25489 11.4207 1.2458ZM11.4207 5.34058e-05C5.11337 0.00165806 0.000947697 5.11354 -0.00012207 11.4214C0.000947697 17.7282 5.11337 22.8423 11.4207 22.8423C17.7281 22.8423 22.8405 17.7282 22.8416 11.4214C22.8405 5.11354 17.7281 0.00165806 11.4207 5.34058e-05Z" fill="#01602A"/></svg>