<svg _ngcontent-serverApp-c81="" width="21" height="18" viewBox="0 0 21 18" fill="none" xmlns="http://www.w3.org/2000/svg"><path _ngcontent-serverApp-c81="" fill-rule="evenodd" clip-rule="evenodd" d="M18.7825 7.58981H15.8712C15.8513 7.59094 15.8303 7.59656 15.8116 7.59656H3.97971C3.96976 7.59656 3.95982 7.58981 3.94766 7.58981H1.6465V7.67981C1.10271 7.91044 0.718079 8.45719 0.718079 9.09619V16.2568C0.718079 17.1051 1.39339 17.7902 2.22566 17.7902H19.0367C19.8701 17.7902 20.5443 17.1051 20.5443 16.2568V11.6004C20.5443 10.6464 19.3561 8.55844 18.7825 7.58981ZM17.9602 9.05231C19.0522 10.9997 19.1052 11.5847 19.1074 11.6004V16.2568C19.1074 16.2973 19.0776 16.3277 19.0367 16.3277H2.22566C2.18587 16.3277 2.15492 16.2973 2.15492 16.2568V9.09619C2.15492 9.07706 2.16266 9.06244 2.17039 9.05231H3.73987L3.76197 9.05906H3.97971H15.8116C15.8569 9.05906 15.9044 9.05681 15.9519 9.05231H17.9602Z" fill="#01602A"/><path _ngcontent-serverApp-c81="" fill-rule="evenodd" clip-rule="evenodd" d="M7.6316 12.1317C7.6316 12.3792 7.43486 12.5783 7.19171 12.5783H4.67171C4.42855 12.5783 4.23181 12.3792 4.23181 12.1317V12.0383C4.23181 11.7908 4.42855 11.5905 4.67171 11.5905H7.19171C7.43486 11.5905 7.6316 11.7908 7.6316 12.0383V12.1317Z" fill="#01602A"/><path _ngcontent-serverApp-c81="" fill-rule="evenodd" clip-rule="evenodd" d="M3.94776 7.58981C3.47803 7.57069 3.10003 7.18481 3.10003 6.70219V2.05369C3.10003 1.55981 3.49461 1.15819 3.97982 1.15819H13.285C13.7724 1.15819 14.2411 1.54069 14.4632 2.05369L16.6041 6.52669C16.8738 7.12744 16.3444 7.55606 15.8713 7.58981H18.7826C18.7771 7.58081 18.7704 7.57069 18.7649 7.56169H18.7461L15.5342 1.49681C15.164 0.636189 14.3781 0.000564575 13.5647 0.000564575H3.11771C2.30645 0.000564575 1.64661 0.671064 1.64661 1.49681V7.58981H3.94776Z" fill="#01602A"/></svg>