<svg _ngcontent-serverApp-c103="" width="20" height="15" viewBox="0 0 20 15" fill="none" xmlns="http://www.w3.org/2000/svg"><path _ngcontent-serverApp-c103="" fill-rule="evenodd" clip-rule="evenodd" d="M8.23693 1.81692C8.4734 1.4032 8.89575 1.1232 9.38281 1.1232H10.764C11.251 1.1232 11.6722 1.4032 11.9099 1.81692H8.23693ZM13.2158 1.81692C13.0287 0.863775 12.1769 0.142632 11.1522 0.142632H8.99458C7.96987 0.142632 7.11693 0.863775 6.92987 1.81692H13.2158Z" fill="#01602A"/><path _ngcontent-serverApp-c103="" fill-rule="evenodd" clip-rule="evenodd" d="M19.8362 6.6976H19.8174V6.72732H-0.000244141V13.2805C-0.000244141 14.1159 0.690344 14.7947 1.54211 14.7947H18.2939C19.1456 14.7947 19.8362 14.1159 19.8362 13.2805V6.6976ZM18.6598 7.87017V13.2805C18.6598 13.485 18.4962 13.6519 18.2939 13.6519H1.54211C1.34093 13.6519 1.17623 13.485 1.17623 13.2805V7.87017H18.6598Z" fill="#01602A"/><path _ngcontent-serverApp-c103="" fill-rule="evenodd" clip-rule="evenodd" d="M18.2945 1.81692H1.54272C0.690954 1.81692 0.000366211 2.49463 0.000366211 3.33235V5.68778H19.818H19.8368V3.33235C19.8368 2.49463 19.1462 1.81692 18.2945 1.81692ZM18.2945 2.95978C18.4957 2.95978 18.6604 3.12663 18.6604 3.33235V4.54492H1.17684V3.33235C1.17684 3.12663 1.34037 2.95978 1.54272 2.95978H18.2945Z" fill="#01602A"/></svg>