<svg _ngcontent-serverApp-c142="" width="17" height="22" viewBox="0 0 17 22" fill="none" xmlns="http://www.w3.org/2000/svg"><path _ngcontent-serverApp-c142="" fill-rule="evenodd" clip-rule="evenodd" d="M11.0615 13.7746L5.57776 18.8782L8.14354 14.7454L6.42897 14.7479L11.433 10.1224L9.35904 13.777L11.0615 13.7746Z" fill="#01602A"/><path _ngcontent-serverApp-c142="" fill-rule="evenodd" clip-rule="evenodd" d="M2.85373 7.98731H2.21137C1.32494 7.98731 0.6073 8.70273 0.6073 9.58763V19.3723C0.6073 20.2548 1.32494 20.9702 2.21137 20.9702H14.7987C15.6863 20.9702 16.4039 20.2548 16.4039 19.3723V9.58763C16.4039 8.70273 15.6863 7.98731 14.7987 7.98731H14.1587H2.85373Z" stroke="#01602A"/><path _ngcontent-serverApp-c142="" d="M4.17542 7.96782V4.79019C4.17542 4.79019 4.64534 0.816032 8.45092 0.816032C12.2553 0.816032 12.7264 4.99719 12.7264 4.99719V7.96782" stroke="#01602A"/><path _ngcontent-serverApp-c142="" d="M4.17542 4.79019C4.17542 4.79019 4.17542 0.816032 8.45092 0.816032C12.2553 0.816032 12.7264 4.99719 12.7264 4.99719" stroke="#01602A"/><path _ngcontent-serverApp-c142="" d="M4.17542 4.79019C4.17542 4.79019 4.17542 0.816032 8.45092 0.816032C12.7264 0.816032 12.7264 4.99719 12.7264 4.99719" stroke="#01602A"/></svg>