<svg _ngcontent-serverApp-c99="" width="23" height="17" viewBox="0 0 23 17" fill="none" xmlns="http://www.w3.org/2000/svg"><path _ngcontent-serverApp-c99="" fill-rule="evenodd" clip-rule="evenodd" d="M20.2699 0.566667H16.3336C8.76993 0.566667 0.547974 4.91527 0.547974 12.0111V14.5622C0.547974 15.6887 1.43074 16.6022 2.51831 16.6022H20.2699C21.3586 16.6022 22.2414 15.6887 22.2414 14.5622V2.60667C22.2414 1.48013 21.3586 0.566667 20.2699 0.566667ZM20.2699 1.7C20.7529 1.7 21.1461 2.10687 21.1461 2.60667V14.5622C21.1461 15.062 20.7529 15.4689 20.2699 15.4689H2.51831C2.03531 15.4689 1.64321 15.062 1.64321 14.5622V12.0111C1.64321 8.34587 4.11626 5.95 6.19173 4.58433C8.97912 2.75173 12.6755 1.7 16.3336 1.7H20.2699Z" fill="#01602A"/><path _ngcontent-serverApp-c99="" fill-rule="evenodd" clip-rule="evenodd" d="M15.4322 7.71698L9.11816 13.8154L12.072 8.87751L10.0973 8.87978L15.8604 3.35251L13.4717 7.71925L15.4322 7.71698Z" fill="#01602A"/></svg>