<svg _ngcontent-serverApp-c285="" viewBox="0 0 58 58" fill="none" xmlns="http://www.w3.org/2000/svg"><circle _ngcontent-serverApp-c285="" cx="29" cy="29" r="29" fill="#78DE1F"/><path _ngcontent-serverApp-c285="" d="M38.1 18H19.9C18.8657 18 17.8737 18.4148 17.1423 19.1533C16.4109 19.8917 16 20.8932 16 21.9375V35.0625C16 36.1068 16.4109 37.1083 17.1423 37.8467C17.8737 38.5852 18.8657 39 19.9 39H38.1C39.1343 39 40.1263 38.5852 40.8577 37.8467C41.5891 37.1083 42 36.1068 42 35.0625V21.9375C42 20.8932 41.5891 19.8917 40.8577 19.1533C40.1263 18.4148 39.1343 18 38.1 18ZM37.229 20.625L29 26.8594L20.771 20.625H37.229ZM38.1 36.375H19.9C19.5552 36.375 19.2246 36.2367 18.9808 35.9906C18.737 35.7444 18.6 35.4106 18.6 35.0625V22.2656L28.22 29.55C28.445 29.7204 28.7187 29.8125 29 29.8125C29.2813 29.8125 29.555 29.7204 29.78 29.55L39.4 22.2656V35.0625C39.4 35.4106 39.263 35.7444 39.0192 35.9906C38.7754 36.2367 38.4448 36.375 38.1 36.375Z" fill="#01602A"/></svg>