<svg viewBox="0 0 34 34" fill="none" xmlns="http://www.w3.org/2000/svg"><path d="M17.9648 22.8575C19.9469 22.8575 21.5594 21.245 21.5594 19.263V19.0374C21.5594 17.0553 19.9469 15.4429 17.9648 15.4429H15.5946C14.654 15.4429 13.8889 14.6775 13.8889 13.737C13.8889 12.7965 14.654 12.0314 15.5946 12.0314H19.8422C20.3638 12.0314 20.7866 11.6085 20.7866 11.0869C20.7866 10.5653 20.3638 10.1425 19.8422 10.1425H17.463V8.8139C17.463 8.3644 17.0986 8 16.6491 8C16.1996 8 15.8352 8.3644 15.8352 8.8139V10.1425H15.5946C13.6126 10.1425 12 11.755 12 13.737C12 15.7191 13.6126 17.3317 15.5946 17.3317H17.9648C18.9053 17.3317 19.6705 18.0969 19.6705 19.0374V19.263C19.6705 20.2035 18.9053 20.9686 17.9648 20.9686H13.7172C13.1956 20.9686 12.7727 21.3915 12.7727 21.9131C12.7727 22.4347 13.1956 22.8575 13.7172 22.8575H15.8352V24.1861C15.8352 24.6356 16.1996 25 16.6491 25C17.0986 25 17.463 24.6356 17.463 24.1861V22.8575H17.9648Z" fill="#78DE1F"/><path fill-rule="evenodd" clip-rule="evenodd" d="M34 17C34 26.3888 26.3888 34 17 34C7.61116 34 0 26.3888 0 17C0 7.61116 7.61116 0 17 0C26.3888 0 34 7.61116 34 17ZM33 17C33 25.8366 25.8366 33 17 33C8.16344 33 1 25.8366 1 17C1 8.16344 8.16344 1 17 1C25.8366 1 33 8.16344 33 17Z" fill="#78DE1F"/></svg>