<svg _ngcontent-serverApp-c287="" viewBox="0 0 58 58" fill="none" xmlns="http://www.w3.org/2000/svg"><circle _ngcontent-serverApp-c287="" cx="29" cy="29" r="29" fill="#78DE1F"/><path _ngcontent-serverApp-c287="" d="M28.5 42C27.3259 42 26.375 41.0617 26.375 39.9032C26.375 38.7448 27.3259 37.8065 28.5 37.8065C29.6741 37.8065 30.625 38.7448 30.625 39.9032C30.625 41.0617 29.6741 42 28.5 42ZM31.8416 30.494C31.3605 30.6773 30.9465 30.9994 30.6537 31.4183C30.3608 31.8372 30.2027 32.3335 30.2 32.8423V34.0323C30.2 34.2629 30.0087 34.4516 29.775 34.4516H27.225C26.9913 34.4516 26.8 34.2629 26.8 34.0323V32.9052C26.8 31.6944 27.1559 30.4992 27.8572 29.5032C28.5425 28.5282 29.4988 27.7839 30.625 27.3593C32.4313 26.6726 33.6 25.1786 33.6 23.5484C33.6 21.2367 31.3103 19.3548 28.5 19.3548C25.6897 19.3548 23.4 21.2367 23.4 23.5484V23.9468C23.4 24.1774 23.2088 24.3661 22.975 24.3661H20.425C20.1912 24.3661 20 24.1774 20 23.9468V23.5484C20 21.4883 20.9137 19.5645 22.5712 18.1335C24.165 16.7548 26.2688 16 28.5 16C30.7313 16 32.835 16.7601 34.4287 18.1335C36.0862 19.5645 37 21.4883 37 23.5484C37 26.5782 34.9759 29.304 31.8416 30.494Z" fill="#01602A"/></svg>