<svg viewBox="0 0 40 40" fill="none" xmlns="http://www.w3.org/2000/svg"><path d="M21.7676 6.94896H18.2342C17.5676 6.94896 17.0176 6.39896 17.0176 5.73229C17.0176 5.06563 17.5676 4.51562 18.2342 4.51562H21.7676C22.4342 4.51562 22.9842 5.06563 22.9842 5.73229C22.9842 6.39896 22.4342 6.94896 21.7676 6.94896Z" fill="#01602A"/><path d="M20.0005 7.63281C12.0672 7.63281 5.61719 14.0828 5.61719 22.0161C5.61719 25.2995 6.7005 28.3995 8.73385 30.9661C8.91719 31.1995 9.20052 31.3161 9.46719 31.3161C9.66719 31.3161 9.88385 31.2495 10.0505 31.1161C10.4672 30.7828 10.5339 30.1995 10.2005 29.7828C8.41719 27.5495 7.48385 24.8661 7.48385 21.9995C7.48385 15.0995 13.1005 9.49948 19.9839 9.49948C26.8672 9.49948 32.4839 15.1161 32.4839 21.9995C32.4839 28.8828 26.8672 34.4995 19.9839 34.4995C18.0505 34.4995 16.1839 34.0661 14.4672 33.2161C14.0005 32.9828 13.4339 33.1828 13.2005 33.6495C12.9672 34.1161 13.1672 34.6828 13.6339 34.9161C15.6172 35.8995 17.7505 36.3828 19.9839 36.3828C27.9172 36.3828 34.3672 29.9328 34.3672 21.9995C34.3672 14.0661 27.9339 7.63281 20.0005 7.63281Z" fill="#01602A"/><path fill-rule="evenodd" clip-rule="evenodd" d="M21.6669 21.4005H26.6169C26.9669 21.4005 27.2336 21.6839 27.2336 22.0339C27.2336 22.3839 26.9503 22.6672 26.6003 22.6672H21.6503C21.4003 23.3505 20.7503 23.8339 19.9836 23.8339C18.9836 23.8339 18.1836 23.0172 18.1836 22.0339C18.1836 21.2672 18.6669 20.6172 19.3503 20.3672V13.4839C19.3503 13.1505 19.6336 12.8672 19.9836 12.8672C20.3336 12.8672 20.6169 13.1339 20.6169 13.4839V20.3505C21.1003 20.5339 21.4836 20.9172 21.6669 21.4005ZM18.9836 22.0172C18.9836 22.5839 19.4336 23.0339 20.0003 23.0339C20.3169 23.0339 20.6003 22.8839 20.7669 22.6339C20.9003 22.4672 21.0003 22.2505 21.0003 22.0172C21.0003 21.7672 20.9003 21.5505 20.7669 21.3839L20.6169 21.2339C20.4336 21.1005 20.2169 21.0005 19.9836 21.0005C19.7503 21.0005 19.5336 21.1005 19.3669 21.2339C19.1336 21.4172 18.9836 21.7005 18.9836 22.0172Z" fill="#01602A"/></svg>